<svg width="194" height="101" viewBox="0 0 194 101" fill="none" xmlns="http://www.w3.org/2000/svg">
<g clip-path="url(#clip0_165_4761)">
<mask id="mask0_165_4761" style="mask-type:luminance" maskUnits="userSpaceOnUse" x="-27" y="-54" width="226" height="225">
<path d="M198.535 -53.3014H-26.1133V170.849H198.535V-53.3014Z" fill="white"/>
</mask>
<g mask="url(#mask0_165_4761)">
<mask id="mask1_165_4761" style="mask-type:luminance" maskUnits="userSpaceOnUse" x="141" y="0" width="36" height="46">
<path d="M164.505 26.3404C167.5 26.3404 169.913 28.2478 169.996 31.2779H159.057C159.514 28.1232 161.719 26.3404 164.505 26.3404ZM141.588 15.797C141.588 16.3747 141.702 16.9467 141.923 17.4804C142.145 18.0141 142.469 18.499 142.879 18.9074C143.288 19.3159 143.774 19.6398 144.309 19.8607C144.844 20.0817 145.417 20.1952 145.996 20.195C146.148 20.1957 146.299 20.1881 146.45 20.1721C147.388 20.0628 148.339 20.1703 149.229 20.4862C150.119 20.8022 150.925 21.3182 151.583 21.9944L152.207 22.617C153.048 23.4338 153.64 24.4716 153.915 25.6104C154.189 26.7491 154.134 27.942 153.757 29.051C153.309 30.4666 153.087 31.9437 153.1 33.4281C153.1 40.6507 157.967 45.2977 164.663 45.2977C170.362 45.2977 174.189 41.9355 175.435 37.7036H169.164C168.415 39.2394 167.042 40.4826 164.546 40.4826C161.634 40.4826 159.306 38.5753 159.015 35.1715H175.864C175.981 34.4302 176.037 33.6805 176.03 32.93C176.03 26.081 171.331 21.5585 164.675 21.5585C162.847 21.5369 161.036 21.913 159.369 22.6606C158.193 23.2187 156.872 23.3958 155.59 23.1673C154.309 22.9388 153.131 22.316 152.222 21.3863L152.207 21.3717C151.529 20.715 151.011 19.9111 150.694 19.0224C150.378 18.1337 150.27 17.1842 150.381 16.2474C150.395 16.1001 150.404 15.9486 150.404 15.795C150.404 14.6286 149.939 13.5099 149.113 12.6852C148.286 11.8604 147.165 11.3971 145.996 11.3971C144.827 11.3971 143.706 11.8604 142.879 12.6852C142.053 13.5099 141.588 14.6286 141.588 15.795M153.751 9.6848C153.751 10.2964 153.932 10.8943 154.273 11.4029C154.613 11.9114 155.097 12.3078 155.664 12.5418C156.23 12.7759 156.853 12.8371 157.455 12.7178C158.056 12.5985 158.608 12.304 159.041 11.8715C159.475 11.439 159.77 10.888 159.89 10.2881C160.009 9.68823 159.948 9.06645 159.713 8.50138C159.479 7.93631 159.081 7.45333 158.572 7.11353C158.062 6.77373 157.463 6.59236 156.85 6.59236C156.028 6.59236 155.24 6.91817 154.658 7.49812C154.077 8.07806 153.751 8.86464 153.751 9.6848ZM148.342 3.10766C148.342 3.55098 148.474 3.98435 148.721 4.35297C148.968 4.72158 149.319 5.00888 149.729 5.17854C150.14 5.34819 150.591 5.39257 151.027 5.30609C151.463 5.2196 151.863 5.00612 152.177 4.69264C152.492 4.37916 152.705 3.97976 152.792 3.54495C152.879 3.11014 152.834 2.65945 152.664 2.24987C152.494 1.84029 152.206 1.49021 151.837 1.24391C151.468 0.997613 151.033 0.866151 150.589 0.866151C150.294 0.865878 150.002 0.923671 149.729 1.03622C149.456 1.14877 149.208 1.31386 149 1.52206C148.791 1.73026 148.626 1.97747 148.513 2.24954C148.4 2.52162 148.342 2.81322 148.342 3.10766Z" fill="white"/>
</mask>
<g mask="url(#mask1_165_4761)">
<path d="M168.972 -13.0116L123.613 9.95892L148.642 59.1624L194 36.1919L168.972 -13.0116Z" fill="url(#paint0_linear_165_4761)"/>
</g>
<mask id="mask2_165_4761" style="mask-type:luminance" maskUnits="userSpaceOnUse" x="27" y="59" width="44" height="39">
<path d="M45.1501 76.8697L45.1314 70.8508L44.4367 70.0206C44.319 69.8802 44.2439 69.7091 44.2204 69.5275C44.1968 69.3459 44.2258 69.1614 44.3038 68.9956C44.3818 68.8299 44.5057 68.6899 44.6608 68.592C44.8159 68.4942 44.9957 68.4426 45.1793 68.4433H52.7008C52.8839 68.4434 53.0633 68.4955 53.2178 68.5935C53.3724 68.6916 53.4958 68.8314 53.5737 68.9968C53.6516 69.1622 53.6807 69.3463 53.6576 69.5276C53.6345 69.7089 53.5602 69.8799 53.4434 70.0206L52.7486 70.8508L52.7299 76.8697L56.7091 83.5277L41.1086 83.6108L45.1501 76.8697ZM46.6748 65.988C46.6748 65.8238 46.7236 65.6633 46.815 65.5268C46.9065 65.3902 47.0364 65.2838 47.1884 65.221C47.3405 65.1582 47.5078 65.1417 47.6692 65.1738C47.8306 65.2058 47.9788 65.2849 48.0952 65.401C48.2115 65.5171 48.2908 65.665 48.3229 65.826C48.355 65.9871 48.3385 66.154 48.2755 66.3057C48.2126 66.4574 48.1059 66.587 47.9691 66.6783C47.8323 66.7695 47.6714 66.8182 47.5069 66.8182C47.2862 66.8182 47.0746 66.7307 46.9185 66.575C46.7625 66.4193 46.6748 66.2082 46.6748 65.988ZM48.2432 62.8748C48.2424 62.6198 48.3174 62.3703 48.4587 62.1578C48.6001 61.9454 48.8014 61.7795 49.0372 61.6813C49.2731 61.583 49.5328 61.5568 49.7836 61.6059C50.0344 61.655 50.2649 61.7772 50.4461 61.9571C50.6272 62.137 50.7508 62.3664 50.8013 62.6164C50.8517 62.8664 50.8266 63.1257 50.7293 63.3615C50.632 63.5973 50.4667 63.7989 50.2545 63.941C50.0423 64.083 49.7926 64.1591 49.537 64.1595C49.1949 64.1595 48.8668 64.0244 48.6243 63.7836C48.3819 63.5428 48.2448 63.2161 48.2432 62.8748ZM46.6748 59.2656L27.9209 91.6677C27.5492 92.3088 27.3532 93.0363 27.3525 93.7769C27.3519 94.5176 27.5467 95.2454 27.9173 95.8871C28.2879 96.5289 28.8212 97.062 29.4638 97.4328C30.1063 97.8037 30.8354 97.9993 31.5777 98H36.6759C35.8485 97.4303 35.2787 96.5589 35.0896 95.5738C34.9005 94.5887 35.1071 93.5689 35.665 92.7345L36.7591 90.9039L61.0419 90.7732L62.2171 92.7345C62.7757 93.5691 62.9823 94.5896 62.7923 95.575C62.6023 96.5605 62.031 97.4317 61.202 98H66.2961C67.0387 97.9998 67.7682 97.8046 68.4112 97.434C69.0542 97.0634 69.5882 96.5305 69.9594 95.8888C70.3306 95.2471 70.526 94.5191 70.526 93.7782C70.5259 93.0373 70.3304 92.3094 69.9591 91.6677L51.2052 59.2573L46.6748 59.2656Z" fill="white"/>
</mask>
<g mask="url(#mask2_165_4761)">
<path d="M71.5856 59.2573H26.292V98H71.5856V59.2573Z" fill="url(#paint1_linear_165_4761)"/>
</g>
<mask id="mask3_165_4761" style="mask-type:luminance" maskUnits="userSpaceOnUse" x="46" y="55" width="3" height="3">
<path d="M46.4814 56.0756C46.4835 56.2779 46.5454 56.4751 46.6593 56.6424C46.7732 56.8097 46.9341 56.9398 47.1218 57.0163C47.3095 57.0928 47.5157 57.1122 47.7145 57.0723C47.9132 57.0323 48.0957 56.9346 48.2391 56.7916C48.3825 56.6485 48.4803 56.4664 48.5204 56.2681C48.5604 56.0698 48.5409 55.8641 48.4643 55.6768C48.3876 55.4895 48.2573 55.329 48.0896 55.2153C47.9218 55.1016 47.7242 55.0399 47.5215 55.0378C47.2456 55.0378 46.9811 55.1472 46.7861 55.3418C46.591 55.5364 46.4814 55.8004 46.4814 56.0756Z" fill="white"/>
</mask>
<g mask="url(#mask3_165_4761)">
<path d="M48.5303 55.0441H46.4731V57.0967H48.5303V55.0441Z" fill="url(#paint2_linear_165_4761)"/>
</g>
<mask id="mask4_165_4761" style="mask-type:luminance" maskUnits="userSpaceOnUse" x="50" y="50" width="6" height="6">
<path d="M50.9639 53.4045C50.9639 53.8872 51.1073 54.3591 51.3761 54.7605C51.6449 55.1618 52.0269 55.4747 52.4739 55.6594C52.9209 55.8441 53.4127 55.8925 53.8873 55.7983C54.3618 55.7041 54.7976 55.4717 55.1397 55.1303C55.4818 54.789 55.7148 54.3541 55.8092 53.8806C55.9036 53.4072 55.8551 52.9164 55.67 52.4704C55.4849 52.0244 55.1713 51.6433 54.7691 51.3751C54.3668 51.1069 53.8938 50.9637 53.41 50.9637C52.7613 50.9637 52.1391 51.2209 51.6803 51.6786C51.2216 52.1363 50.9639 52.7571 50.9639 53.4045Z" fill="white"/>
</mask>
<g mask="url(#mask4_165_4761)">
<path d="M55.8583 50.9637H50.9639V55.8473H55.8583V50.9637Z" fill="url(#paint3_linear_165_4761)"/>
</g>
<mask id="mask5_165_4761" style="mask-type:luminance" maskUnits="userSpaceOnUse" x="75" y="59" width="32" height="39">
<path d="M82.5663 82.2908H95.4503C96.5482 82.3151 97.5929 82.7674 98.3607 83.5508C99.1286 84.3342 99.5585 85.3864 99.5585 86.4822C99.5585 87.5779 99.1286 88.6301 98.3607 89.4135C97.5929 90.1969 96.5482 90.6492 95.4503 90.6736H82.5663V82.2908ZM82.5663 66.5837H92.8668C93.9523 66.6254 94.9795 67.0851 95.7327 67.8661C96.4859 68.6472 96.9067 69.689 96.9067 70.773C96.9067 71.8569 96.4859 72.8987 95.7327 73.6798C94.9795 74.4609 93.9523 74.9205 92.8668 74.9623H82.5663V66.5837ZM75.2236 59.2573V98H95.4503C97.8721 98.0008 100.233 97.2413 102.198 95.829C104.163 94.4167 105.633 92.4232 106.399 90.1309C107.166 87.8387 107.19 85.3639 106.469 83.0571C105.747 80.7504 104.316 78.7287 102.379 77.2785C103.568 75.55 104.261 73.5303 104.384 71.4374C104.507 69.3445 104.054 67.2579 103.075 65.4029C102.096 63.548 100.627 61.9951 98.8284 60.912C97.0293 59.8289 94.968 59.2568 92.8668 59.2573H75.2236Z" fill="white"/>
</mask>
<g mask="url(#mask5_165_4761)">
<path d="M106.993 59.2552H75.2236V97.9979H106.993V59.2552Z" fill="url(#paint4_linear_165_4761)"/>
</g>
<mask id="mask6_165_4761" style="mask-type:luminance" maskUnits="userSpaceOnUse" x="-27" y="-54" width="226" height="225">
<path d="M198.535 -53.3014H-26.1133V170.849H198.535V-53.3014Z" fill="white"/>
</mask>
<g mask="url(#mask6_165_4761)">
<path d="M172.101 61.1397L167.069 63.155C166.143 63.5286 165.006 62.8769 164.531 61.7022C164.307 61.1628 164.267 60.5644 164.419 60.0003C164.479 59.7588 164.593 59.5341 164.754 59.3437C164.914 59.1534 165.116 59.0024 165.345 58.9024L170.383 56.8809C171.308 56.5094 172.44 57.1652 172.912 58.3337C173.137 58.872 173.179 59.469 173.033 60.0335C172.972 60.276 172.856 60.5014 172.695 60.6924C172.533 60.8834 172.33 61.035 172.101 61.1356" fill="#455556"/>
<path d="M163.021 67.1274L128.811 80.8629C127.77 81.278 123.581 81.7989 122.591 80.7051C122.525 80.6329 122.472 80.5501 122.433 80.4602L121.156 77.2765C121.116 77.1825 121.095 77.0817 121.093 76.9797C121.064 75.4874 124.422 72.9886 125.462 72.5797L159.673 58.8463C160.781 58.4022 162.144 59.1743 162.714 60.5897L164.005 63.7693C164.575 65.1827 164.128 66.675 163.021 67.1274Z" fill="#C5D5D6"/>
<path d="M162.634 64.6286L122.591 80.7051C122.524 80.6334 122.471 80.5505 122.433 80.4602L121.156 77.2765C121.116 77.1826 121.094 77.0817 121.093 76.9797L161.145 60.9011C161.954 60.5752 162.946 61.1356 163.356 62.1754C163.559 62.6421 163.598 63.1637 163.466 63.6552C163.412 63.8704 163.309 64.0703 163.165 64.2391C163.02 64.408 162.839 64.5413 162.634 64.6286Z" fill="#D5E5E6"/>
<path d="M159.429 70.7948C158.487 71.1725 157.37 70.6744 156.71 69.6595C156.581 69.4701 156.474 69.2668 156.39 69.0535L153.559 62.0363C153.473 61.8235 153.409 61.6023 153.37 61.3763C153.139 60.1809 153.596 59.0456 154.539 58.6782L163.258 55.1769C164.365 54.7307 165.734 55.5152 166.299 56.9182L169.128 63.9375C169.698 65.3488 169.263 66.8556 168.144 67.2935L159.429 70.7948Z" fill="#2443C6"/>
<g style="mix-blend-mode:multiply">
<mask id="mask7_165_4761" style="mask-type:luminance" maskUnits="userSpaceOnUse" x="121" y="55" width="52" height="24">
<path d="M172.912 55.0441H121.089V78.8642H172.912V55.0441Z" fill="white"/>
</mask>
<g mask="url(#mask7_165_4761)">
<path d="M172.912 58.3379L121.79 78.8621L121.156 77.2765C121.116 77.1826 121.095 77.0817 121.093 76.9797C121.064 75.4874 124.422 72.9886 125.462 72.5797L153.364 61.3722C153.133 60.1767 153.59 59.0414 154.533 58.6741L163.252 55.1728C164.359 54.7265 165.728 55.5111 166.293 56.9141L166.851 58.3005L170.375 56.885C171.3 56.5135 172.432 57.1694 172.904 58.3379" fill="#D5E5E6"/>
</g>
</g>
<path d="M122.499 91.3896C122.1 95.6194 119.569 96.9934 116.613 96.7049C113.657 96.4164 111.429 94.6149 111.829 90.3851C112.228 86.1553 118.221 79.7089 118.221 79.7089C118.221 79.7089 122.901 87.1619 122.499 91.3896Z" fill="#F72514"/>
<path d="M118.221 79.7089L116.613 96.7049C113.661 96.4268 111.429 94.6149 111.829 90.3851C112.228 86.1553 118.221 79.7089 118.221 79.7089Z" fill="#F72514"/>
</g>
<mask id="mask8_165_4761" style="mask-type:luminance" maskUnits="userSpaceOnUse" x="0" y="18" width="26" height="80">
<path d="M17.7472 18.6944L13.0046 26.7846L7.61098 18.6944H0L8.79663 31.8611L0.199687 45.472H0.149765L0.28289 59.2573V97.9294H22.6541V90.603H7.62346V59.2573L7.66299 45.472H7.6193L12.4305 37.2802L17.9011 45.4845H25.5121L16.6385 32.2057L25.1668 18.6944H17.7472Z" fill="white"/>
</mask>
<g mask="url(#mask8_165_4761)">
<path d="M25.5121 18.6944H0V97.9273H25.5121V18.6944Z" fill="url(#paint5_linear_165_4761)"/>
</g>
<mask id="mask9_165_4761" style="mask-type:luminance" maskUnits="userSpaceOnUse" x="-27" y="-54" width="226" height="225">
<path d="M198.535 -53.3014H-26.1133V170.849H198.535V-53.3014Z" fill="white"/>
</mask>
<g mask="url(#mask9_165_4761)">
<path d="M40.6946 39.9513V45.4907H37.3665C34.9952 45.4907 33.1467 44.9124 31.821 43.7557C30.4953 42.5989 29.8353 40.7075 29.8408 38.0813V29.6093H27.2407V24.1902H29.8408V19.0016H36.3826V24.1902H40.6572V29.6093H36.3743V38.1581C36.3743 38.7932 36.5269 39.2512 36.8319 39.5321C37.137 39.813 37.6473 39.9513 38.3629 39.9472L40.6946 39.9513Z" fill="#2443C6"/>
<path d="M53.7389 24.9727C54.8975 24.2953 56.2192 23.9458 57.562 23.962V30.8691H55.7649C54.1313 30.8691 52.9075 31.2185 52.0935 31.9172C51.2795 32.616 50.8711 33.8439 50.8684 35.6012V45.4908H44.3286V24.1903H50.8684V27.7393C51.5954 26.606 52.5785 25.6585 53.7389 24.9727Z" fill="#2443C6"/>
<path d="M60.6402 29.0365C61.3892 27.4734 62.5624 26.1511 64.0266 25.2197C65.4605 24.3272 67.1209 23.864 68.8108 23.8852C70.1841 23.8557 71.5429 24.1704 72.7629 24.8004C73.8407 25.3518 74.7497 26.1827 75.3942 27.2059V24.1903H81.9256V45.4907H75.3942V42.4709C74.7267 43.4855 73.8082 44.3112 72.7275 44.8681C71.5075 45.4979 70.1487 45.8126 68.7754 45.7834C67.0966 45.7998 65.4491 45.3297 64.0328 44.4302C62.5666 43.484 61.3939 42.1486 60.6465 40.574C59.8145 38.9136 59.3984 36.9869 59.3984 34.7938C59.3984 32.6007 59.8145 30.6795 60.6465 29.0302M74.0338 30.977C73.6063 30.5323 73.0934 30.1782 72.5256 29.9357C71.9579 29.6931 71.347 29.5673 70.7294 29.5655C70.1119 29.5638 69.5003 29.6862 68.9312 29.9255C68.3621 30.1648 67.8471 30.5161 67.4171 30.9583C66.5116 31.8868 66.0588 33.1653 66.0588 34.7938C66.0588 36.4223 66.5116 37.7133 67.4171 38.6666C67.8412 39.1171 68.3531 39.4765 68.9212 39.7227C69.4894 39.9689 70.102 40.0969 70.7214 40.0986C71.3409 40.1003 71.9542 39.9759 72.5237 39.7329C73.0933 39.4899 73.6072 39.1334 74.0338 38.6853C74.938 37.7444 75.3907 36.4597 75.3921 34.8312C75.3935 33.2026 74.9407 31.9179 74.0338 30.977Z" fill="#2443C6"/>
<path d="M86.7264 29.0365C87.5905 27.4247 88.9059 26.0985 90.5122 25.2197C92.2223 24.3082 94.1379 23.8488 96.0764 23.8851C98.7527 23.8851 100.99 24.5846 102.789 25.9834C104.587 27.3823 105.766 29.354 106.325 31.8985H99.3671C98.7805 30.2714 97.6454 29.4571 95.962 29.4557C95.4064 29.4389 94.855 29.557 94.3553 29.8C93.8556 30.0429 93.4226 30.4034 93.0936 30.8504C92.3794 31.7788 92.0223 33.1078 92.0223 34.8374C92.0223 36.5669 92.3794 37.8966 93.0936 38.8264C93.423 39.2729 93.8561 39.6329 94.3558 39.8755C94.8554 40.118 95.4066 40.2359 95.962 40.2191C97.6454 40.2191 98.7805 39.4048 99.3671 37.7762H106.327C105.765 40.2668 104.58 42.226 102.77 43.6539C100.96 45.0819 98.7292 45.7938 96.0764 45.7896C93.9866 45.7896 92.1319 45.3448 90.5122 44.4551C88.905 43.5774 87.5893 42.2509 86.7264 40.6383C85.8195 38.9779 85.3668 37.0443 85.3682 34.8374C85.3696 32.6305 85.8223 30.6968 86.7264 29.0365Z" fill="#2443C6"/>
<path d="M109.751 29.0365C110.499 27.4731 111.671 26.1506 113.135 25.2197C114.57 24.3278 116.23 23.8647 117.92 23.8852C119.293 23.856 120.652 24.1707 121.872 24.8004C122.945 25.3539 123.849 26.1847 124.49 27.2059V24.1903H131.036V45.4907H124.495V42.4709C123.83 43.4853 122.915 44.3111 121.836 44.8681C120.616 45.4981 119.258 45.8128 117.884 45.7834C116.205 45.7994 114.558 45.3294 113.142 44.4302C111.675 43.4849 110.503 42.1491 109.757 40.574C108.925 38.9136 108.509 36.9869 108.509 34.7938C108.509 32.6007 108.925 30.6795 109.757 29.0302M123.145 30.977C122.717 30.5323 122.204 30.1781 121.636 29.9355C121.068 29.693 120.457 29.5671 119.839 29.5653C119.222 29.5636 118.61 29.6861 118.04 29.9254C117.471 30.1647 116.956 30.516 116.526 30.9583C115.62 31.8868 115.168 33.1653 115.17 34.7938C115.171 36.4223 115.623 37.7133 116.526 38.6666C116.95 39.1172 117.462 39.4766 118.031 39.7228C118.599 39.9691 119.212 40.097 119.831 40.0987C120.451 40.1005 121.064 39.976 121.634 39.733C122.204 39.49 122.718 39.1334 123.145 38.6853C124.047 37.7444 124.499 36.4597 124.501 34.8312C124.502 33.2026 124.05 31.9179 123.145 30.977Z" fill="#2443C6"/>
<path d="M145.187 24.9727C146.346 24.295 147.669 23.9456 149.012 23.9619V30.8691H147.213C145.582 30.8691 144.359 31.2185 143.542 31.9172C142.725 32.6159 142.317 33.8439 142.319 35.6012V45.4907H135.777V24.1902H142.319V27.7393C143.044 26.6056 144.027 25.658 145.187 24.9727Z" fill="#2443C6"/>
</g>
</g>
</g>
<defs>
<linearGradient id="paint0_linear_165_4761" x1="168.976" y1="40.6908" x2="151.107" y2="5.40615" gradientUnits="userSpaceOnUse">
<stop stop-color="#DB11B6"/>
<stop offset="1" stop-color="#0BC6DB"/>
</linearGradient>
<linearGradient id="paint1_linear_165_4761" x1="48.0183" y1="50.5984" x2="48.0183" y2="85.7423" gradientUnits="userSpaceOnUse">
<stop stop-color="#1B75BB"/>
<stop offset="1" stop-color="#00A69C"/>
</linearGradient>
<linearGradient id="paint2_linear_165_4761" x1="46.5397" y1="50.5984" x2="46.5397" y2="85.7422" gradientUnits="userSpaceOnUse">
<stop stop-color="#1B75BB"/>
<stop offset="1" stop-color="#00A69C"/>
</linearGradient>
<linearGradient id="paint3_linear_165_4761" x1="52.3638" y1="50.3743" x2="52.3638" y2="85.5181" gradientUnits="userSpaceOnUse">
<stop stop-color="#1B75BB"/>
<stop offset="1" stop-color="#00A69C"/>
</linearGradient>
<linearGradient id="paint4_linear_165_4761" x1="90.2001" y1="50.5984" x2="90.2001" y2="85.7423" gradientUnits="userSpaceOnUse">
<stop stop-color="#1B75BB"/>
<stop offset="1" stop-color="#00A69C"/>
</linearGradient>
<linearGradient id="paint5_linear_165_4761" x1="11.7462" y1="18.6944" x2="11.7462" y2="97.9273" gradientUnits="userSpaceOnUse">
<stop stop-color="#1B75BB"/>
<stop offset="1" stop-color="#00A69C"/>
</linearGradient>
<clipPath id="clip0_165_4761">
<rect width="194" height="101" fill="white"/>
</clipPath>
</defs>
</svg>
